<svg width="910" height="519" viewBox="0 0 910 519" fill="none" xmlns="http://www.w3.org/2000/svg">
<path d="M454.909 6.62109C579.593 6.62109 692.147 35.4395 773.3 81.6924C854.643 128.054 903.197 191.088 903.197 259.274C903.197 327.461 854.643 390.496 773.3 436.857C692.147 483.11 579.593 511.928 454.909 511.928C330.226 511.928 217.671 483.11 136.519 436.857C55.1752 390.496 6.62109 327.461 6.62109 259.274C6.62125 191.088 55.1753 128.054 136.519 81.6924C217.671 35.4395 330.225 6.62111 454.909 6.62109Z" stroke="#111111" stroke-width="13.2426"/>
<path d="M661.577 350.266C660.017 343.727 654.183 339.159 647.397 339.159C646.275 339.159 645.139 339.29 644.036 339.546C636.213 341.374 631.35 349.157 633.196 356.893C634.755 363.433 640.589 368 647.375 368C648.497 368 649.628 367.87 650.734 367.614C658.559 365.786 663.42 358.003 661.577 350.264V350.266Z" fill="#111111"/>
<path d="M632.724 279.78C631.345 265.629 626.389 251.821 617.799 239.974C609.638 228.717 598.497 219.591 585.531 214.267C573.593 209.365 560.39 207.594 547.349 209.142C534.254 210.695 521.667 215.565 510.939 223.222L506.599 226L530.18 150.003H499.81L477.913 220.584C473.778 216.095 468.228 212.523 461.343 209.958C450.464 205.905 437.569 204.376 424.063 205.546C411.611 206.623 399.429 209.866 388.831 214.92C381.973 218.193 375.815 222.589 370.002 228.361C364.606 233.723 360.136 239.699 356.843 244.313C356.843 244.313 380.559 260.863 380.562 260.863C380.108 260.616 391.334 248.29 392.527 247.251C396.917 243.426 402.042 240.624 407.461 238.456C418.735 233.943 435.534 231.141 447.419 235.262C452.117 236.892 456.339 240.899 456.606 245.814C457.836 268.246 406.921 269.011 393.116 274.372C379.363 279.712 366.999 288.308 357.534 299.57C343.297 316.51 312.492 354.251 287.153 333.275C280.398 327.682 277.523 318.694 276.558 310.033C274.877 294.93 278.01 279.682 282.499 265.15C288.754 244.906 297.636 225.581 307.126 206.648C308.958 202.991 329.488 161.961 329.568 162.002L303.765 150C291.227 171.398 272.814 206.58 260.934 240.072C254.14 259.223 249.976 276.562 248.557 291.603C246.749 310.74 249.332 326.836 256.236 339.442C267.536 360.075 283.919 365.777 295.669 366.925C297.369 367.091 299.097 367.173 300.852 367.173C314.137 367.173 341.055 363.598 360.788 336.509C365.194 347.63 374.467 356.991 387.474 362.932C399.473 368.41 413.627 367.812 429.554 361.144C438.237 357.51 447.474 352.048 457.126 344.85L450.954 367.624H481.01L491.316 329.586C503.444 345.533 518.319 356.988 534.441 362.777C542.643 365.72 551.022 367.194 559.337 367.194C567.209 367.194 575.021 365.875 582.566 363.228C598 357.82 611.456 346.917 620.458 332.519C630.372 316.665 634.498 297.941 632.726 279.777L632.724 279.78ZM595.769 317.429C590.147 326.417 582.233 332.897 572.873 336.177C563.779 339.363 553.915 339.235 544.349 335.799C533.164 331.787 522.544 323.259 513.624 311.143C513.599 311.11 513.577 311.077 513.552 311.045C505.221 299.919 495.063 297.04 488.007 296.586C470.304 295.438 455.696 307.865 449.79 313.784C438.325 323.634 421.412 338.286 405.158 337.6C397.236 337.266 389.141 332.16 387.483 324.494C386.006 317.666 389.901 310.579 395.407 306.216C404.498 299.015 415.913 297.642 426.872 295.095C457.83 287.917 487.911 277.22 513.426 257.985C519.972 253.048 526.197 247.64 533.294 243.513C545.754 236.272 561.001 235.276 574.396 240.776C600.544 251.514 609.563 282.928 600.472 307.826C599.251 311.172 597.656 314.404 595.763 317.429H595.772H595.769Z" fill="#111111"/>
</svg>
