<svg width="151" height="31" viewBox="0 0 151 31" fill="none" xmlns="http://www.w3.org/2000/svg">
<path d="M75.2459 6.12079V9.34761H62.7358V16.6948H74.253V19.9216H62.7358V29.7841H59.2607V6.12079H75.2459Z" fill="#EFF1F3"/>
<path d="M77.3599 6.12079H80.8349V26.5573H93.0141V29.7841H77.3599V6.12079Z" fill="#EFF1F3"/>
<path d="M93.6595 17.9525C93.6595 10.6135 98.1853 5.62436 104.829 5.62436C111.473 5.62436 116.007 10.6135 116.007 17.9525C116.007 25.2831 111.473 30.2806 104.829 30.2806C98.1853 30.2806 93.6595 25.2831 93.6595 17.9525ZM97.1345 17.9525C97.1345 23.6366 100.022 27.0537 104.829 27.0537C109.636 27.0537 112.532 23.6366 112.532 17.9525C112.532 12.2683 109.636 8.85118 104.829 8.85118C100.022 8.85118 97.1345 12.2683 97.1345 17.9525Z" fill="#EFF1F3"/>
<path d="M131.656 6.12079H136.173L141.725 27.4923L147.393 6.12079H151L144.538 29.7841H139.326L133.865 9.42207L128.305 29.7841H123.092L116.746 6.12079H120.436L125.988 27.4923L131.656 6.12079Z" fill="#EFF1F3"/>
<path d="M56.7739 27.5333C56.5598 26.6342 55.7589 26.0063 54.8274 26.0063C54.6734 26.0063 54.5174 26.0242 54.366 26.0594C53.2921 26.3107 52.6246 27.3807 52.8779 28.4444C53.092 29.3434 53.8929 29.9714 54.8244 29.9714C54.9785 29.9714 55.1337 29.9534 55.2854 29.9183C56.3597 29.6669 57.0269 28.5969 56.7739 27.5329V27.5333Z" fill="#EFF1F3"/>
<path d="M52.8131 17.8427C52.6239 15.8972 51.9435 13.9988 50.7643 12.37C49.6439 10.8225 48.1147 9.56771 46.3347 8.8358C44.696 8.16186 42.8835 7.91839 41.0934 8.13119C39.2957 8.34474 37.5678 9.01419 36.0952 10.067L35.4993 10.4488L38.7364 0.0005571H34.5674L31.5614 9.70421C30.9939 9.08712 30.2319 8.59607 29.2868 8.24339C27.7934 7.68614 26.0233 7.47596 24.1693 7.63677C22.46 7.78487 20.7876 8.23068 19.3327 8.92556C18.3914 9.37547 17.546 9.97985 16.7481 10.7735C16.0073 11.5106 15.3937 12.3323 14.9417 12.9666C14.9417 12.9666 18.1973 15.2419 18.1977 15.2419C18.1354 15.2079 19.6763 13.5133 19.8402 13.3705C20.4429 12.8446 21.1463 12.4594 21.8902 12.1614C23.4379 11.5409 25.7439 11.1557 27.3755 11.7223C28.0204 11.9463 28.6 12.4972 28.6366 13.173C28.8054 16.257 21.8162 16.3621 19.921 17.0992C18.0331 17.8334 16.3358 19.0152 15.0365 20.5635C13.0821 22.8924 8.85343 28.0812 5.37505 25.1973C4.44768 24.4284 4.0531 23.1927 3.92056 22.0019C3.68985 19.9255 4.11993 17.8292 4.73616 15.8314C5.59481 13.0481 6.81405 10.3912 8.11674 7.78824C8.36822 7.28559 11.1866 1.64464 11.1975 1.65025L7.65533 0.000183105C5.93426 2.94202 3.40666 7.77889 1.77584 12.3835C0.843186 15.0164 0.271512 17.4003 0.0766743 19.4681C-0.171404 22.0991 0.183155 24.3121 1.13091 26.0451C2.68206 28.8819 4.931 29.6658 6.54407 29.8236C6.77742 29.8464 7.01455 29.8576 7.25546 29.8576C9.07923 29.8576 12.7743 29.3662 15.4832 25.642C16.0881 27.1709 17.361 28.4578 19.1466 29.2746C20.7936 30.0278 22.7367 29.9455 24.923 29.0289C26.115 28.5292 27.383 27.7782 28.708 26.7886L27.8607 29.9197H31.9866L33.4014 24.6902C35.0662 26.8825 37.1083 28.4574 39.3213 29.2533C40.4473 29.6579 41.5975 29.8606 42.7389 29.8606C43.8196 29.8606 44.8919 29.6792 45.9277 29.3154C48.0464 28.5719 49.8935 27.0729 51.1294 25.0933C52.4902 22.9137 53.0566 20.3395 52.8135 17.8423L52.8131 17.8427ZM47.7401 23.0188C46.9683 24.2545 45.882 25.1453 44.597 25.5964C43.3487 26.0343 41.9947 26.0167 40.6814 25.5444C39.1461 24.9927 37.6882 23.8203 36.4637 22.1545C36.4603 22.15 36.4573 22.1455 36.4539 22.141C35.3102 20.6114 33.9157 20.2157 32.9472 20.1532C30.517 19.9954 28.5116 21.7038 27.7009 22.5176C26.1271 23.8719 23.8053 25.8862 21.5741 25.792C20.4867 25.746 19.3754 25.044 19.1477 23.99C18.945 23.0513 19.4796 22.0771 20.2356 21.4772C21.4835 20.4872 23.0505 20.2983 24.5548 19.9483C28.8046 18.9613 32.934 17.4908 36.4365 14.8463C37.3352 14.1675 38.1897 13.424 39.1639 12.8566C40.8744 11.861 42.9674 11.7242 44.8062 12.4804C48.3956 13.9565 49.6338 18.2754 48.3858 21.6986C48.2182 22.1586 47.9992 22.6029 47.7394 23.0188H47.7405H47.7401Z" fill="#EFF1F3"/>
</svg>
